<svg xmlns="http://www.w3.org/2000/svg" width="18" height="24" viewBox="0 0 18 24" fill="none"><path d="M2.91952 24H14.8583C16.8133 24 17.7778 23.0821 17.7778 21.0872V12.6548C17.7778 10.9169 17.0349 9.99898 15.523 9.80316V6.84141C15.523 2.22743 12.3037 0 8.88889 0C5.4741 0 2.25481 2.22743 2.25481 6.84141V9.80316C0.742913 9.99898 0 10.9169 0 12.6548V21.0872C0 23.0821 0.964484 24 2.91952 24ZM4.35321 6.5844C4.35321 3.51249 6.45161 1.88475 8.88889 1.88475C11.3262 1.88475 13.4246 3.51249 13.4246 6.5844V9.76645H4.35321V6.5844ZM2.99772 22.1642C2.39818 22.1642 2.0984 21.9072 2.0984 21.2218V12.5324C2.0984 11.847 2.39818 11.6022 2.99772 11.6022H14.7931C15.3926 11.6022 15.6794 11.847 15.6794 12.5324V21.2218C15.6794 21.9072 15.3926 22.1642 14.7931 22.1642H2.99772Z" fill="grey" fill-opacity="0.55"/></svg>
