<svg width="13" height="10" viewBox="0 0 13 10" fill="none" xmlns="http://www.w3.org/2000/svg"><path d="M0.707952 0.60799L0.634952 0.59299C0.527952 0.59199 0.470952 0.68299 0.514952 0.77499C0.529161 0.803116 0.545896 0.829893 0.564952 0.85499L0.982952 1.49899C1.40795 2.15299 1.83295 2.80599 2.25695 3.46099C2.27755 3.49575 2.30566 3.52547 2.33923 3.54796C2.3728 3.57045 2.41097 3.58515 2.45095 3.59099C3.15195 3.72499 3.85095 3.67999 4.54195 3.53799C5.19764 3.39929 5.84953 3.24324 6.49695 3.06999C7.28395 2.86799 8.07095 2.66599 8.88895 2.61999C9.61795 2.57699 10.319 2.67799 10.982 2.99499C11.092 3.04799 11.114 3.04299 11.176 2.94699L11.554 2.35899L12.311 1.18399C12.358 1.11099 12.356 1.05899 12.282 1.00899C12.216 0.96499 12.152 0.91899 12.087 0.87299C11.9775 0.794122 11.8658 0.718424 11.752 0.64599C11.1511 0.26508 10.4624 0.0450382 9.75195 0.00698969C9.17261 -0.0170514 8.59268 0.0374434 8.02795 0.16899C7.65595 0.25099 7.28395 0.33699 6.91195 0.42199C6.53995 0.50799 6.16795 0.59399 5.79495 0.67599C5.10595 0.82599 4.40895 0.91799 3.70295 0.95199C2.83195 0.99399 1.97795 0.86999 1.12795 0.69499L0.707952 0.60799ZM10.281 4.09099C9.90311 3.96892 9.508 3.90881 9.11095 3.91299C8.68895 3.90897 8.26788 3.95326 7.85595 4.04499C7.43595 4.13799 7.01595 4.23599 6.59795 4.33499C6.36795 4.38899 6.13895 4.44299 5.90995 4.49499C5.08795 4.68499 4.25795 4.82599 3.41195 4.84599C3.26495 4.84999 3.22495 4.93899 3.30895 5.06899L5.33895 8.21099L6.45195 9.93099L6.45595 9.93699C6.48095 9.97699 6.50995 10.022 6.55995 9.98799C6.58395 9.97199 6.59695 9.90999 6.58995 9.87399C6.53295 9.60899 6.47395 9.34399 6.41495 9.07799L6.36095 8.83499C6.21376 8.17237 6.06676 7.5097 5.91995 6.84699C5.90395 6.77699 5.91395 6.73099 5.99595 6.70699C6.62295 6.51799 7.25395 6.34899 7.91095 6.30099C8.21795 6.27899 8.52295 6.28699 8.81395 6.39599C8.90395 6.42999 8.94595 6.41899 8.99695 6.33899C9.32295 5.82599 9.65095 5.31399 9.97895 4.80199L10.334 4.24699C10.402 4.14099 10.397 4.12799 10.281 4.09099Z" fill="#E73F30" /></svg>
