<svg fill="none" xmlns="http://www.w3.org/2000/svg" viewBox="0 0 366 43"><path d="M98.157 18.114c4.41 0 7.38 3.41 7.38 8.49v9.43c0 .13-.11.24-.24.24h-4.32c-.13 0-.24-.11-.24-.24v-9.4c0-1.97-.96-4.08-3.64-4.08h-.09c-2.05.04-3.79 1.85-3.79 3.97v9.51c0 .13-.11.24-.24.24h-4.29c-.13 0-.24-.11-.24-.24v-17.44c0-.13.11-.24.24-.24h4.15c.13 0 .24.11.24.24l.01 1.55c1.6-1.4 3.2-2.03 5.07-2.03Zm65.85 15c-.07.1-.06.23.02.32 2.55 2.56 5.36 2.92 7.77 2.92 3.41 0 5.96-1.3 7-3.57.32-.69.48-1.44.48-2.23 0-4.6-3.97-5.44-7.42-5.66-2.76-.18-2.76-1.14-2.76-1.46 0-1.16 1.87-1.29 2.67-1.29 1.55 0 2.7.38 3.67 1.22.1.09.26.08.35-.02l2.44-2.84c.09-.1.08-.26-.03-.35-1.79-1.5-3.69-2.11-6.5-2.11-1.78 0-3.53.44-4.81 1.2-1.66.99-2.53 2.48-2.53 4.33 0 3.2 2.55 5.15 7.19 5.5 2.62.15 2.96.91 2.96 1.56 0 .96-1.27 1.46-2.52 1.46h-.11c-2.02-.04-3.97-.78-5.26-2.01a.244.244 0 0 0-.191-.068.254.254 0 0 0-.179.098l-2.24 3Zm-43.42-2.95c.72-.85 1.04-1.99 1.04-3.22 0-2.25-1.38-4.59-4.67-4.59-2.72 0-4.55 1.87-4.55 4.65 0 2.8 1.83 4.68 4.55 4.68 1.39 0 2.82-.57 3.63-1.52Zm.93-11.61c0-.13.11-.24.24-.24h4.28c.13 0 .24.11.24.24v17.47c0 .13-.11.24-.24.24h-4.28c-.13 0-.24-.11-.24-.24v-1.32c-1.5 1.39-3.26 1.42-4.84 1.45h-.27c-2.57 0-4.75-.81-6.3-2.34-1.64-1.61-2.51-3.97-2.51-6.82 0-5.48 3.5-9.03 8.91-9.03h.08c1.71 0 3.47.17 4.92 1.32l.01-.73Zm-53.22-4.57v-4.2a.3.3 0 0 0-.3-.3h-15.57a.3.3 0 0 0-.3.3v26.18c0 .17.14.3.3.3h4.2a.3.3 0 0 0 .3-.3v-10.69c0-.17.14-.3.3-.3h7.84a.3.3 0 0 0 .3-.3v-4.2a.3.3 0 0 0-.3-.3h-7.84a.3.3 0 0 1-.3-.3v-5.26c0-.17.14-.3.3-.3h10.75c.19-.03.32-.16.32-.33Zm91.58 16.69a.26.26 0 0 0-.34-.02c-.85.69-1.9 1.08-2.94 1.08-2.62 0-4.45-1.89-4.45-4.59s1.83-4.59 4.45-4.59c1.03 0 2.09.39 2.94 1.08.1.08.25.08.34-.02l2.77-2.92c.09-.1.09-.26-.01-.35-1.78-1.68-3.62-2.4-6.11-2.4-5.61 0-9.24 3.61-9.24 9.2s3.63 9.2 9.24 9.2c2.48 0 4.32-.72 6.11-2.4.1-.09.1-.25.01-.35l-2.77-2.92Zm-22.36 5.6c.13 0 .24-.11.24-.24v-3.91c0-.13-.11-.24-.24-.24-.44 0-1.83 0-2.12-.01-1.25-.05-1.81-.67-1.81-2v-6.68h3.93c.13 0 .24-.11.24-.24v-4.34c0-.13-.11-.24-.24-.24h-3.9v-3.8c0-.13-.11-.24-.24-.24h-4.33c-.13 0-.24.11-.24.24v15.31c0 4.07 2.3 6.41 6.31 6.41h.8l1.6-.02Zm-57.36-6.11c.72-.85 1.04-1.99 1.04-3.22 0-2.25-1.38-4.59-4.67-4.59-2.72 0-4.55 1.87-4.55 4.65 0 2.8 1.83 4.68 4.55 4.68 1.39 0 2.82-.57 3.63-1.52Zm.93-11.61c0-.13.11-.24.24-.24h4.28c.13 0 .24.11.24.24v17.47c0 .13-.11.24-.24.24h-4.28c-.13 0-.24-.11-.24-.24v-1.32c-1.5 1.39-3.26 1.42-4.84 1.45h-.27c-2.57 0-4.75-.81-6.3-2.34-1.64-1.61-2.51-3.97-2.51-6.82 0-5.48 3.5-9.03 8.91-9.03h.08c1.71 0 3.47.17 4.92 1.32l.01-.73Zm59.29 17.72h4.32c.13 0 .24-.11.24-.24v-17.47c0-.13-.11-.24-.24-.24h-4.32c-.13 0-.24.11-.24.24v17.47c-.01.13.1.24.24.24Zm4.86-23.27c0-3.52-5.33-3.52-5.33 0s5.33 3.52 5.33 0Z" fill="#fff" /><path d="m44.847 4.434-4.48 6.96c-.09.14-.28.21-.43.14-10.35-5.21-22.29 4.37-32.83 2.08a.374.374 0 0 1-.24-.16s-5.1-7.84-6.79-10.46a.47.47 0 0 1 .48-.72c.92.21 4.88 1.09 7.96 1.31 15.99.86 24.65-8.73 36.24.36.15.12.19.33.09.49Zm-13.07 19.96c.08.04.18.01.23-.06l5.45-8.43c.07-.1.01-.23-.11-.27-7.85-2.71-15.2 2.49-26.41 2.78-.29-.01-.59.34-.39.71l12.1 18.68c.18.31.59.12.54-.17l-2.61-11.83a.2.2 0 0 1 .14-.23c.97-.35 7.82-2.68 11.06-1.18Z" fill="#E63F2F" /><path d="M195.947 14.064c-3.07 0-5.53 1.21-5.53 4.18 0 2.65 2.19 3.4 5.73 4.01 4.83.76 8.77 1.74 8.77 7.24-.04 5.46-4.38 7.24-9.01 7.24-4.27 0-7.53-1.57-9.41-5.63l2.49-1.46c1.56 2.89 3.97 4.29 6.95 4.29s6.01-.95 6.01-4.52c.04-3.02-2.53-3.89-6.15-4.46-4.67-.74-8.36-1.81-8.36-6.75-.07-5.08 4.25-6.82 8.43-6.82 3.6 0 6.18.74 8.32 4.42l-2.29 1.44c-1.31-2.12-3.3-3.1-5.98-3.14v-.04h.03Zm40.79 4.61c5.21 0 8.86 3.69 8.86 9.02s-3.73 8.88-8.86 8.88c-5.13 0-8.83-3.65-8.83-8.88 0-5.24 3.77-9.02 8.83-9.02Zm.04 2.61c-3.49 0-6.03 2.57-6.03 6.41 0 3.61 2.51 6.2 6 6.2s6.03-2.57 6.07-6.2c-.01-3.84-2.63-6.41-6.04-6.41Zm14.41-2.27.21 2.57c1.18-2.23 3.28-2.85 5.25-2.85 1.48-.04 2.94.49 3.97 1.29l-1.27 2.44c-.9-.62-1.8-.95-2.96-.95-2.72.04-5 1.98-5 5.16v9.56h-2.83v-17.18h2.62l.04-.04h-.03Zm34.77 3.86c-1.48-1.36-3.04-1.66-4.8-1.66-2.34-.04-4.24.79-4.22 2.51.04 1.78 2.1 2.31 4.23 2.53 3.11.38 7.25 1 7.18 5.25-.07 3.44-3.32 5.16-7.14 5.16-2.87 0-5.7-.79-7.63-3.23l1.63-1.98c1.52 1.87 3.97 2.65 6.07 2.65 1.86 0 4.23-.59 4.31-2.68.04-1.87-1.97-2.44-4.59-2.74-3.28-.42-6.8-1.29-6.8-4.95-.04-3.65 3.62-5.08 6.9-5.05 2.55 0 4.67.62 6.48 2.31l-1.63 1.87-.04.04.05-.03Zm34.2-4.2c5.21 0 8.86 3.69 8.86 9.02s-3.73 8.88-8.86 8.88c-5.13 0-8.83-3.65-8.83-8.88 0-5.24 3.77-9.02 8.83-9.02Zm.04 2.61c-3.49 0-6.03 2.57-6.03 6.41 0 3.61 2.51 6.2 6 6.2 3.48 0 6.03-2.57 6.07-6.2-.01-3.84-2.63-6.41-6.04-6.41Zm19.92-2.61c5.21 0 8.86 3.69 8.86 9.02s-3.73 8.88-8.86 8.88c-5.13 0-8.83-3.65-8.83-8.88 0-5.24 3.77-9.02 8.83-9.02Zm.03 2.61c-3.49 0-6.03 2.57-6.03 6.41 0 3.61 2.51 6.2 6 6.2 3.48 0 6.03-2.57 6.07-6.2 0-3.84-2.63-6.41-6.04-6.41Zm14.04 5.01 7.01-7.24h3.52v.17l-7.87 7.94 8.83 8.88v.21h-3.45l-8.04-8.11v8.11h-2.79v-21.91h2.79v11.95Zm-88.16-7.2h5.28v2.44h-5.32v9.09c0 2.02.66 3.31 2.7 3.31.75 0 1.63-.25 2.38-.62l.82 2.36c-1.14.53-2.17.79-3.32.83-3.65.08-5.38-2.08-5.38-5.88v-16.27h2.83v4.74h.01Zm-58.46.02h2.7l.13 3.31c1.35-2.31 3.86-3.63 6.56-3.63 4.89.11 8.49 3.59 8.49 8.88 0 5.29-3.56 8.94-8.66 8.94-2.42 0-5.12-1.04-6.45-3.48v9.51h-2.75v-23.53h-.02Zm15.04 8.63c0-3.86-2.51-6.16-6-6.16-3.48 0-5.98 2.65-5.98 6.16 0 3.51 2.51 6.16 5.98 6.2 3.42 0 6-2.32 6-6.2Zm71.52-5.57c1.2-2.32 3.97-3.44 6.39-3.44 4.87 0 8.62 3.14 8.62 8.9s-3.77 8.9-8.66 8.9c-2.51 0-5-1.12-6.35-3.44l-.13 3.14h-2.7v-21.91h2.83v7.85Zm.13 5.42c0 3.76 2.66 6.26 6.03 6.26s6-2.27 6-6.24-2.7-6.24-6-6.24-6.03 2.51-6.03 6.2v.02Z" fill="#fff" /></svg>
